<?xml version="1.0" encoding="UTF-8"?><svg id="uuid-9df26df3-c96f-40a2-8b22-7ac84d2addf5" xmlns="http://www.w3.org/2000/svg" viewBox="0 0 10.9 16.9"><g id="uuid-d821b31d-dd76-4b43-920f-5cc6b7357201"><path id="uuid-07012032-3cd2-4dc2-bb82-f8e573ad606a" d="M4.7,13.3c.5,0,.9,0,1.4,0,.4,0,.7.3.7.7s-.3.7-.7.7h-1.4c-.4,0-.7-.3-.7-.7s.3-.7.7-.7"/><path id="uuid-448ac0b7-f308-42b7-9d55-a7331ec384c5" d="M0,2.4C0,1.1,1.1,0,2.4,0c0,0,0,0,0,0h6c1.3,0,2.4,1.1,2.4,2.4h0v12.1c0,1.3-1.1,2.4-2.4,2.4H2.4C1.1,16.9,0,15.8,0,14.5V2.4ZM2.4,1.2c-.7,0-1.2.5-1.2,1.2v12.1c0,.7.5,1.2,1.2,1.2h6c.7,0,1.2-.5,1.2-1.2V2.4c0-.7-.5-1.2-1.2-1.2H2.4Z"/></g></svg>