<?xml version="1.0" encoding="UTF-8"?><svg id="uuid-e9c33594-b586-4f95-bda2-8eaf662ec992" xmlns="http://www.w3.org/2000/svg" xmlns:xlink="http://www.w3.org/1999/xlink" viewBox="0 0 28 22"><defs><clipPath id="uuid-c9158c22-b1ec-4fb0-8a6b-6972dfc0aa90"><rect x="0" y="0" width="28" height="22" style="fill:none;"/></clipPath></defs><g style="clip-path:url(#uuid-c9158c22-b1ec-4fb0-8a6b-6972dfc0aa90);"><g id="uuid-249025cd-533a-4033-a007-666bcc417a19"><path id="uuid-9dbff0df-b592-436f-8603-8d0a15f2b3c3" d="M26.5,0c0,0,.2,0,.3,0,.5-.1,1.1.2,1.2.7,0,.1,0,.3,0,.5,0,0,0,.2,0,.3v19c0,.8-.7,1.5-1.5,1.5H1.5C.7,22,0,21.3,0,20.5V1.5c0,0,0-.2,0-.3C0,.7.2.2.8,0c.1,0,.3,0,.5,0,0,0,.2,0,.3,0h25ZM26,3l-11.4,8.8c-.3.2-.8.3-1.1,0h-.1c0,0-11.4-8.8-11.4-8.8v17h24V3ZM24.1,2H3.9l10.1,7.7,10.1-7.7Z" style="fill-rule:evenodd;"/></g></g></svg>