<?xml version="1.0" encoding="UTF-8"?><svg id="uuid-745bcad4-4c86-4387-bfdd-07ffedbb85f0" xmlns="http://www.w3.org/2000/svg" viewBox="0 0 26.9 22.7"><g id="uuid-6bbe514e-77c5-4f44-a060-ae58c3bc24e3"><path id="uuid-53d90693-c8f9-4302-bfd9-7be7c5701a95" d="M22.4,20.9c0,.7-.6,1.2-1.2,1.2h-9c-.7,0-1.2-.6-1.2-1.2V1.9c0-.7.6-1.2,1.2-1.2h9c.7,0,1.2.6,1.2,1.2v3.5h.6V1.9C23,.8,22.2,0,21.2,0c0,0,0,0,0,0h-9c-1,0-1.9.8-1.9,1.9v19c0,1,.8,1.9,1.9,1.9h9c1,0,1.9-.8,1.9-1.9v-5h-.6v5Z"/><path id="uuid-725db415-3c1f-42a8-ac48-9bd4c0ddb941" d="M21.6,5.4v-1.7c0-.4-.2-.8-.4-1.1-.3-.3-.7-.5-1.1-.4h-6.9c-.8,0-1.5.7-1.5,1.5v15.4c0,.8.7,1.5,1.5,1.5h6.9c.8,0,1.5-.7,1.5-1.5v-3.2h-.6v3.2c0,.5-.4.9-.9.9h-6.9c-.5,0-.9-.4-.9-.9V3.7c0-.5.4-.9.9-.9h6.9c.5,0,.9.4.9.9v1.7h.6Z"/><path id="uuid-8f739f4e-2b8c-4a23-8db6-d13401e52537" d="M16.7,20.9c-.2,0-.4.2-.4.4s.2.4.4.4.4-.2.4-.4-.2-.4-.4-.4h0Z"/><path id="uuid-295dd106-1dbc-4fb0-a417-a5a3f9e41eca" d="M16.7,1.7c.2,0,.3-.1.3-.3,0-.2-.1-.3-.3-.3h-2.2c-.2,0-.3.2-.3.3,0,.2.1.3.3.3h2.1Z"/><path id="uuid-dfc355f3-1b03-4d27-8dc5-6b5119a50115" d="M18.1,1.7h.7c.2,0,.3-.1.3-.3h0c0-.2-.1-.3-.3-.3h-.7c-.2,0-.3.1-.3.3,0,0,0,0,0,0h0c0,.2.1.3.3.3,0,0,0,0,0,0h0"/><path id="uuid-60c0095a-e6d2-4d3f-b113-281685010c39" d="M26.9,10.4l-3.7-3.7v2.5h-6.2v2.5h6.2v2.5l3.7-3.7Z"/><path id="uuid-712d4017-80ff-4d5e-bec8-c16bc0b02427" d="M0,4.6s0,0,0,0c0,0,0,.1.1.2,0,0,0,0,0,.1,0,0,0,0,0,0H.3c0,0,0,.2,0,.2,0,0,.1.2.2.2,0,0,0,.1,0,.1,0,0,.1.2.1.3,0,0,0,0,0,0,0,0,.1.1.1.2,0,.1,0,.3.2.4.1,0,.2.1.3.2,0,0,0,0,0,0,.2.2.3.3.5.5,0,0,0,0,0,.1,0,0,0,0,0,.1,0,.1,0,.2,0,.2,0,0-.2.1-.3,0,0,0-.1,0-.2,0h0s0,0,0,0c0,0,.2.1.2.2,0,0,0,0,0,.1,0,0,0,.1.1.1,0,0,0,0,.1,0,0,0,0,0,0,0,0,0,.1,0,.2.1,0,0,.1,0,.1,0,0,0,.1,0,.1,0,0,0,.2.1.3.2,0,0,.1,0,.2.1,0,0,0,0,.1,0,0,0,0,.1.1.2.1.2.1.5,0,.7,0,0,0,0,0,.1h0s0,0,0,0c0,0,0,0,0,0,.1,0,.1,0,0,.2h.1c0,0,0,0,0,0h0c0,0,0-.1,0-.1,0,0,0,0,0,0,0,0,.1.1.2.2.1,0,.2.2.3.2,0,0,.1.1.2.2,0,0,0,0,.1.1,0,0,0,.2.1.3,0,.1.1.2.2,0,0,0,.1,0,.1-.1,0,0,.1-.2,0-.3,0,0,0,0,0,0,0,0,0,0,0-.1,0,0,0-.2-.2-.2,0,0,0,0,0,0l-.2-.2v.2c-.3-.1-.3-.2-.3-.4,0,0,0-.1,0-.2,0-.1-.1-.2-.2-.3,0,0,0,0,0,0,0,0-.1-.2-.1-.3,0-.2,0-.4-.2-.5,0,0,0,0-.2-.1,0,0,0,0-.1-.1,0,0,0,0,0,0,0,0-.1,0-.1-.2,0,0,0-.1-.1-.2,0,0-.1,0-.1-.2,0-.1,0-.2,0-.3,0,0,0,0,0,0,0,0,0,0,0-.1,0,0,0-.2-.1-.2,0,0,0,0,0,0h-.1c0-.1,0-.1,0-.2,0-.2-.2-.3-.4-.4,0,0-.2-.1-.2-.2,0,0,0-.1,0-.2,0-.1,0-.3,0-.4,0,0,0,0,0,0-.1-.1,0-.3,0-.4,0-.1.1-.1.2,0h.1c0,.1.1.1.2.1,0,0,.2,0,.2,0,0,.1,0,.1.2.1,0,0,0,0,.1,0,0,0,.1,0,0,.1,0,.1,0,.2,0,.3,0,0,.1.2.1.3,0,0,0,0,0,0,0,0,.1.2.2.2,0,0,0,0,0,.1,0,0,0,0,0,0,0,0,0,0,0,.1,0,0,0,0,0,0,0,0,0,0,0,.1,0,0,0,0,0,0,0,0,0,0,.1.1s0,0,0,0c0,0,0,0,0-.1,0,0,.1.1.1.1,0,0,.1.2.2.2,0,0,.2.1.2.2,0,.1.2.1.3.2,0,0,0,0,0,0,.1,0,.2,0,.2.1,0,.2,0,.3.3.4.1,0,.2,0,.2.2,0,0,0,.1.1.1h0s0,0,.1,0c.1,0,.2.2,0,.3,0,0,0,0,0,0,0,0,0,.2,0,.3,0,0,0,0,0,0,0,0,0,0,0,0,0,0,.1,0,.2.1h0c0,0,0,0,0,0,0,0,0,0,0,0,.1,0,.3.1.4.2,0,0,0,0,0,0h-.1c0,0,0,.1.1.2,0,0,0,.1.1.1,0,0,0,0,0,0,0,0,0,0,.1,0,0,0,0,0,0,0h0c0,0,0,.1,0,.1,0,0,.2.1.3.2,0,0,0,0,.1.2,0,.1.2.2.3.3,0,.1.2.2.3.3.1.1.2.3.2.5,0,0,0,0,0,.1,0,.1.1.2.2.4,0,0,0,.2,0,.3,0,0,0,0-.1.1,0,0,0,0,0,0,0,0,0,0,0,0s0,0,0,0c0,0,0,0-.1,0,0,0-.1,0,0,0,0,.1.1.3.2.4,0,0,.1.2.2.3,0,0,0,0,0,0,.1,0,.3.2.4.2.2,0,.3.2.4.4,0,0,0,0,0,0,.2,0,.5.2.7.2,0,0,0,0,0,0,0,0,.1,0,.2,0,0,0,.2.2.3.2.1.1.3.2.4.3,0,0,0,0,.1,0,.2,0,.3.1.4.2,0,0,0,0,.1,0,0,0,.2,0,.3,0,.1,0,.3,0,.4.2,0,0,0,0,.1,0,.1,0,.2,0,.3.1,0,0,.1,0,.2,0,.2,0,.3,0,.4.1,0,0,0,0,0,0,.2,0,.3,0,.5,0,.1,0,.2-.1.4-.1,0,0,0,0,0,0,0,0,.2-.1.3-.1,0,0,0,0,0,0h0s0-.1,0-.1h0c0,0,.1,0,.1,0h0c0,.1.2,0,.2,0h0s.2,0,.2,0h0s0,0,0,0c0,0,.1,0,.1,0,0,0,0,0,0,0,0,0,0,0,.1,0,.3.3.5.5.8.8,0,0,0,0,0,0,0,0,0,0,0-.1,0,0,0-.1,0-.2,0,0,0,0,0-.1,0,0,0,0,0-.1,0-.1.2-.3.2-.4,0,0,0,0,.1,0h.5c.2,0,.2,0,.2-.2,0,0,0,0,0,0,0,0-.2-.1-.2-.2,0,0,0,0,0,0l-.4-.3s0,0,0,0c0,0,.2,0,.2,0s0-.1,0-.2h0c0-.1,0-.1.1-.1h1c0,0,0,0,.1,0,0,0,0,0,.1,0s0,0,.1,0c0,0,.1-.2.2-.3,0,0,0,0,0,0,0,0,0,0,.1,0,0,0,0-.1.1-.2h0c0,0,0,.1,0,.1,0,0,0,0,0,0,0,0,0,.1.1.2l.2-.7h-.1s0,0,0,0c0,0,0,0,0,0h0s-.1,0-.1,0c0,0,0,0,0,0,0,0,.1-.1.1-.2,0-.2,0-.3.2-.4,0,0,.1-.2.2-.3h0c0-.2,0-.4-.1-.4,0,0,0,0,0,0,0,0,0,0,0,0-.1,0-.2,0-.3,0-.2,0-.3,0-.5,0-.2,0-.3.1-.5.1-.1,0-.3,0-.4.1-.2,0-.3.2-.3.4,0,.1,0,.3,0,.4,0,0,0,.1,0,.1,0,0,0,.1,0,.2,0,0,0,.1,0,.2-.1,0-.2.2-.3.2h0c0,0,.1.2.1.2h-.1c0,.2-.2.2-.2,0h0s0,0,0,0c0,0,0,0,0,0-.2,0-.3,0-.5.1,0,0-.2,0-.3,0,0,0,0,0-.1,0,0,0-.2,0-.3.1,0,0-.2,0-.3,0,0,0,0,0-.1,0,0,0-.1-.2-.3-.2,0,0-.2,0-.3,0-.1,0-.2,0-.3-.1,0,0,0,0,0-.1,0-.1-.2-.2-.2-.4,0-.1,0-.3-.2-.4,0,0,0,0-.1-.1-.1-.1-.2-.3-.3-.5,0,0,0-.2,0-.2,0,0,0-.1,0-.2s-.2-.1-.2-.2c0-.2-.1-.4,0-.6,0,0,0-.1,0-.2,0-.2,0-.5,0-.7,0-.3.1-.6.3-.9,0,0,0-.2,0-.3,0,0,0,0,0,0,0,0,0,0,0,0,0,0-.1,0-.2,0,0,0,0,0-.1,0-.2,0-.4,0-.5-.1,0,0-.2,0-.3-.1,0,0,0,0,0,0,0,0,0-.2-.1-.2,0,0-.1-.2-.1-.3,0,0,0,0,0-.1,0,0,0-.1,0-.2,0,0,0,0-.1-.1,0-.1-.2-.2-.3-.3,0,0,0,0,0,0,0-.1-.1-.3-.2-.5,0,0,0-.1-.1-.2-.1-.1-.3-.2-.4-.4,0,0,0,0,0,0,0,0,0,0-.1,0-.2,0-.3-.1-.5,0h0c0,0-.1,0-.2.1,0,0,0,.1,0,.2,0,.2-.2.2-.3.2-.2-.1-.4-.2-.5-.3,0,0,0,0,0,0-.1,0-.2-.2-.2-.3,0,0,0-.1,0-.2,0,0,0,0,0-.1,0-.1-.1-.2-.2-.2,0,0-.1,0-.2-.1-.1-.1-.3-.2-.4-.3,0,0,0,0,0-.1,0,0-.1-.2-.2-.1h-.9c0,0-.1,0-.1.1h0c0,.2,0,.2-.1.2h-1.5c0,0-.1,0-.2,0-.7-.2-1.4-.5-2.2-.7,0,0,0,0,0-.1,0,0,0,0,0,0,0,0,0,0,0,0-.2,0-.4,0-.6,0-.3,0-.5,0-.8,0,0,0,0,0,0,0,0,0,0,0,0,0,0,0,0,0,0,0,0,0,0,0,0,.1"/></g></svg>