<?xml version="1.0" encoding="UTF-8"?><svg id="uuid-5918293f-18da-444f-80ee-301576fc72f6" xmlns="http://www.w3.org/2000/svg" viewBox="0 0 24.7 24.7"><path id="uuid-be2ab460-4de1-4a9f-a755-402efd1a019b" d="M0,12.3C0,5.5,5.5,0,12.3,0s12.3,5.5,12.3,12.3-5.5,12.3-12.3,12.3c-6.8,0-12.3-5.5-12.3-12.3ZM5.5,20.4c1.9,1.6,4.3,2.5,6.8,2.5,5.8,0,10.6-4.7,10.6-10.6h0c0-2.5-.9-4.9-2.5-6.8l-1.7,1.7v9.9c0,1.3-1,2.3-2.3,2.3h-8.1c-.5,0-1-.2-1.4-.4l-1.4,1.4ZM1.8,12.3c0,2.5.9,4.9,2.5,6.8l1.7-1.7c0-.1,0-.2,0-.3v-8.5l4.6-4.6h5.8c.8,0,1.5.4,2,1.1l.8-.8c-1.9-1.6-4.3-2.5-6.8-2.5-5.8,0-10.6,4.7-10.6,10.6h0ZM8.3,17.9h8.1c.3,0,.5-.1.7-.4,0-.1.1-.3.1-.5v-8.4l-9.2,9.2c0,0,.2,0,.3,0h0ZM7.5,9.2v6.7l9.7-9.7c0,0,0-.2,0-.2-.1-.3-.4-.5-.8-.5h-5.2l-3.7,3.7Z"/></svg>